<?xml version="1.0" encoding="UTF-8" standalone="no"?>
<!-- Created with Inkscape (http://www.inkscape.org/) -->

<svg
   width="150mm"
   height="150mm"
   viewBox="0 0 150 150"
   version="1.1"
   id="svg1"
   xml:space="preserve"
   inkscape:version="1.4 (86a8ad7, 2024-10-11)"
   sodipodi:docname="LOGO.svg"
   xmlns:inkscape="http://www.inkscape.org/namespaces/inkscape"
   xmlns:sodipodi="http://sodipodi.sourceforge.net/DTD/sodipodi-0.dtd"
   xmlns="http://www.w3.org/2000/svg"
   xmlns:svg="http://www.w3.org/2000/svg"><sodipodi:namedview
     id="namedview1"
     pagecolor="#505050"
     bordercolor="#eeeeee"
     borderopacity="1"
     inkscape:showpageshadow="0"
     inkscape:pageopacity="0"
     inkscape:pagecheckerboard="0"
     inkscape:deskcolor="#505050"
     inkscape:document-units="mm"
     inkscape:zoom="1.0396254"
     inkscape:cx="157.74912"
     inkscape:cy="275.58003"
     inkscape:window-width="2560"
     inkscape:window-height="1369"
     inkscape:window-x="-8"
     inkscape:window-y="-8"
     inkscape:window-maximized="1"
     inkscape:current-layer="layer1"
     inkscape:lockguides="false" /><defs
     id="defs1"><linearGradient
       id="swatch1"
       inkscape:swatch="solid"><stop
         style="stop-color:#ffffff;stop-opacity:1;"
         offset="0"
         id="stop1" /></linearGradient></defs><g
     inkscape:label="Layer 1"
     inkscape:groupmode="layer"
     id="layer1"
     transform="translate(-30,-89.904182)"><rect
       style="opacity:0.998092;fill:#27426b;fill-opacity:1;stroke:none;stroke-width:0.083958;stroke-linecap:round;stroke-linejoin:round;stroke-dasharray:none;stroke-opacity:1;paint-order:fill markers stroke"
       id="rect32962"
       width="150"
       height="150"
       x="30"
       y="89.904182"
       sodipodi:insensitive="true"
       inkscape:label="Fondo" /><text
       xml:space="preserve"
       style="font-style:normal;font-variant:normal;font-weight:normal;font-stretch:normal;font-size:29.3468px;font-family:'Colonna MT';-inkscape-font-specification:'Colonna MT, Normal';font-variant-ligatures:normal;font-variant-caps:normal;font-variant-numeric:normal;font-variant-east-asian:normal;text-align:start;writing-mode:lr-tb;direction:ltr;text-anchor:start;opacity:0.998092;fill:#ffffff;fill-opacity:1;stroke:none;stroke-width:0.5;stroke-linecap:round;stroke-linejoin:round;stroke-dasharray:none;stroke-opacity:1;paint-order:fill markers stroke"
       x="47.456722"
       y="193.62224"
       id="text32961"
       inkscape:label="CotidyFit"
       sodipodi:insensitive="true"><tspan
         id="tspan32961"
         style="font-style:normal;font-variant:normal;font-weight:normal;font-stretch:normal;font-size:29.3468px;font-family:'Colonna MT';-inkscape-font-specification:'Colonna MT, Normal';font-variant-ligatures:normal;font-variant-caps:normal;font-variant-numeric:normal;font-variant-east-asian:normal;fill:#ffffff;fill-opacity:1;stroke:none;stroke-width:0.5;stroke-dasharray:none;stroke-opacity:1"
         x="47.456722"
         y="193.62224"
         sodipodi:role="line">Cotidy<tspan
   style="stroke:#ffffff;stroke-width:0.5;stroke-dasharray:none;stroke-opacity:1"
   id="tspan32963">Fit</tspan></tspan></text><text
       xml:space="preserve"
       style="font-style:normal;font-variant:normal;font-weight:normal;font-stretch:normal;font-size:7.88801px;font-family:'High Tower Text';-inkscape-font-specification:'High Tower Text, Normal';font-variant-ligatures:normal;font-variant-caps:normal;font-variant-numeric:normal;font-variant-east-asian:normal;text-align:start;writing-mode:lr-tb;direction:ltr;text-anchor:start;opacity:0.998092;fill:#ffffff;fill-opacity:1;stroke:none;stroke-width:0.0268787;stroke-linecap:round;stroke-linejoin:round;stroke-dasharray:none;stroke-opacity:1;paint-order:fill markers stroke"
       x="63.718899"
       y="208.57486"
       id="text32962"
       inkscape:label="Más pasos, Más libertad"
       sodipodi:insensitive="true"><tspan
         sodipodi:role="line"
         id="tspan32962"
         style="font-style:normal;font-variant:normal;font-weight:normal;font-stretch:normal;font-size:7.88801px;font-family:'High Tower Text';-inkscape-font-specification:'High Tower Text, Normal';font-variant-ligatures:normal;font-variant-caps:normal;font-variant-numeric:normal;font-variant-east-asian:normal;fill:#ffffff;fill-opacity:1;stroke:none;stroke-width:0.0268787"
         x="63.718899"
         y="208.57486">Más Pasos, Más Libertad</tspan></text><path
       d="m 103.39145,133.95526 c 1.10008,0.49639 1.91844,1.89162 1.75745,2.99171 -0.20123,1.30132 -1.26108,2.41482 -2.46849,2.58922 -1.18059,0.16099 -2.17335,-0.29515 -2.911204,-1.32815 -0.362227,-0.48296 -0.402473,-0.65737 -0.402473,-1.50256 0,-0.81835 0.05366,-1.033 0.402473,-1.59646 0.751274,-1.22083 2.347744,-1.73063 3.622244,-1.15376 z m 12.94613,2.62949 c 0.13415,0.16098 0.13415,0.73785 0,2.83071 -0.0805,1.44889 -0.10733,2.68313 -0.0403,2.73679 0.0537,0.0537 0.63054,0.13416 1.2745,0.16099 2.0526,0.10733 2.06602,0.34882 0.16099,3.39417 -0.41589,0.65737 -0.85861,1.3684 -0.97935,1.56964 -0.99276,1.67697 -2.25384,3.74298 -2.52215,4.09179 -0.3488,0.48296 -0.76469,0.56345 -1.18058,0.25489 -0.24148,-0.1744 -0.2549,-0.28173 -0.0939,-2.84412 0.20123,-3.15268 0.25489,-3.00512 -1.30133,-3.00512 -1.05983,0 -1.48914,-0.20123 -1.48914,-0.6842 0,-0.12074 0.36223,-0.81836 0.79153,-1.55622 0.44272,-0.72445 1.08667,-1.7977 1.43548,-2.38799 1.14034,-1.91845 2.62948,-4.29302 2.84413,-4.5345 0.25489,-0.28173 0.87202,-0.29515 1.10009,-0.0268 z m -15.29389,3.56856 c 1.00618,0.40248 1.16716,0.52322 1.51598,1.07326 0.20123,0.33539 0.63054,1.30133 0.9391,2.14651 l 0.56346,1.52939 1.39523,0.6842 c 0.76469,0.36222 1.52939,0.83177 1.70379,1.04642 0.46955,0.53663 0.4293,1.194 -0.0805,1.71722 -0.36222,0.36222 -0.48296,0.40246 -0.97935,0.33539 -0.75128,-0.0805 -3.36733,-1.36841 -3.90396,-1.90503 -0.24148,-0.24149 -0.53664,-0.65738 -0.6708,-0.92568 -0.21464,-0.46955 -0.25489,-0.48298 -0.40246,-0.2549 -0.32198,0.45613 -1.448891,2.60264 -1.395228,2.6563 0.01341,0.0134 0.429298,0.22807 0.912258,0.46955 1.86479,0.92569 2.20018,1.40865 2.17335,3.15269 -0.0403,2.46849 -0.26832,4.89673 -0.48297,5.23212 -0.48297,0.73787 -1.46231,1.00617 -2.11968,0.57688 -0.18782,-0.12075 -0.442712,-0.44272 -0.563453,-0.71104 -0.214654,-0.44271 -0.214654,-0.65736 -0.09391,-2.07943 0.08049,-0.87202 0.147572,-1.95868 0.147572,-2.4014 v -0.81837 l -0.684203,-0.3488 c -0.778111,-0.38905 -0.952515,-0.36222 -1.234244,0.1744 -1.113502,2.1331 -4.172281,7.4323 -4.440594,7.71402 -0.992761,1.0196 -2.64289,0.17441 -2.455071,-1.26107 0.05366,-0.44272 0.536625,-1.3684 2.455071,-4.73574 0.160987,-0.29515 0.697618,-1.23424 1.180581,-2.07943 l 0.872021,-1.54281 -0.442716,-0.46954 c -0.617124,-0.64396 -0.885437,-1.22083 -0.885437,-1.90503 0.01341,-0.60371 0.147572,-0.92569 1.328153,-3.09903 0.389054,-0.71103 0.670787,-1.30132 0.617119,-1.30132 -0.281728,0 -0.95251,0.52321 -1.945272,1.54281 -0.63054,0.64394 -1.314737,1.24765 -1.529393,1.3684 -0.845184,0.44271 -1.824531,-0.17441 -1.824531,-1.15375 0.01341,-0.57688 0.08049,-0.68421 1.623297,-2.24043 1.448899,-1.46231 2.039187,-1.81111 3.877138,-2.25383 0.778107,-0.18782 1.529388,-0.36222 1.67696,-0.40248 0.724449,-0.1744 2.039186,0.0268 3.152682,0.46955 z m 19.51984,16.01835 0.33539,0.32197 v 3.0722 c 0,2.8307 -0.0268,3.11243 -0.2549,3.39417 l -0.2549,0.32197 h -15.45488 c -15.132895,0 -15.454869,0 -15.642689,-0.2549 -0.295148,-0.40247 -0.241486,-0.97934 0.120741,-1.20741 0.160988,-0.0939 0.992762,-0.30856 1.837947,-0.46955 0.84519,-0.16099 2.173343,-0.41588 2.951454,-0.56345 0.778112,-0.14759 1.985524,-0.38907 2.683137,-0.52322 0.697618,-0.14758 1.972109,-0.38906 2.817299,-0.55004 3.112441,-0.57688 5.473601,-1.0196 10.263001,-1.94527 0.96593,-0.17442 2.5624,-0.48297 3.55516,-0.67079 0.99276,-0.18783 2.60265,-0.49638 3.55516,-0.67079 0.96593,-0.18781 1.98552,-0.38906 2.28066,-0.44272 0.81836,-0.17441 0.85861,-0.17441 1.20742,0.18783 z"
       id="path1-6"
       style="fill:#ffffff;fill-opacity:1;stroke:none;stroke-width:0.500211;stroke-dasharray:none;stroke-opacity:1"
       inkscape:label="Imagen"
       sodipodi:nodetypes="ccccsccsccccccccsscccssccccccccsccsccccccscccccccccccscccccccccsccsccsscccsccc"
       sodipodi:insensitive="true" /><path
       style="opacity:1;fill:none;fill-opacity:1;stroke:#ffffff;stroke-width:0.286434;stroke-linecap:round;stroke-linejoin:round;stroke-dasharray:none;stroke-opacity:1;paint-order:fill markers stroke"
       id="path32962"
       d="M 111.97115,124.08253 A 25.393108,25.393108 0 0 1 129.41786,155.4698 25.393108,25.393108 0 0 1 98.031554,172.91825 25.393108,25.393108 0 0 1 80.581368,141.53291 25.393108,25.393108 0 0 1 111.96574,124.08098"
       sodipodi:type="arc"
       sodipodi:arc-type="arc"
       sodipodi:start="4.9904891"
       sodipodi:end="4.9902675"
       sodipodi:ry="25.393108"
       sodipodi:rx="25.393108"
       sodipodi:cy="148.5"
       sodipodi:cx="105"
       sodipodi:open="true"
       inkscape:label="Círculo"
       sodipodi:insensitive="true" /><path
       style="opacity:1;fill:none;fill-opacity:1;stroke:#27426b;stroke-width:0.7;stroke-linecap:round;stroke-linejoin:round;stroke-dasharray:none;stroke-opacity:1;paint-order:fill markers stroke"
       d="m 99.043659,139.31356 c -4.326473,6.61697 -2.952307,8.7255 -2.952307,8.7255"
       id="path32964"
       inkscape:label="Línea persona2"
       sodipodi:nodetypes="cc"
       sodipodi:insensitive="true" /><path
       style="fill:none;fill-opacity:1;stroke:#27426b;stroke-width:0.7;stroke-linecap:round;stroke-linejoin:round;stroke-dasharray:none;stroke-opacity:1;paint-order:fill markers stroke"
       d="m 96.790804,150.29734 c -4.32648,6.61697 -4.955555,9.31544 -4.955555,9.31544 m 4.302863,-11.54908 c 2.036539,-0.34396 1.239091,1.31437 0.619831,2.28336"
       id="path32964-8"
       inkscape:label="Línea persona1"
       sodipodi:nodetypes="cccc"
       sodipodi:insensitive="true" /><path
       style="opacity:1;fill:none;fill-opacity:1;stroke:#27426b;stroke-width:0.7;stroke-linecap:round;stroke-linejoin:round;stroke-dasharray:none;stroke-opacity:1;paint-order:fill markers stroke"
       d="m 115.90967,136.39673 c -0.24332,4.17181 -3.00722,7.59211 -3.10256,7.67457 l 1.83448,-0.10961 2.27147,-0.32865 c -2.27226,1.94713 -3.09506,4.88917 -3.69713,8.09948"
       id="path32965"
       inkscape:label="Línea rayo"
       sodipodi:nodetypes="ccccc"
       sodipodi:insensitive="true" /></g></svg>
